HIERARCHY
ROOT hip
{
	OFFSET 0.000000 0.000000 0.000000 
	CHANNELS 6 Xposition Yposition Zposition Xrotation Zrotation Yrotation
	JOINT abdomen
	{
		OFFSET 0.000000 3.402643 0.000000 
		CHANNELS 3 Xrotation Zrotation Yrotation
		JOINT chest
		{
			OFFSET 0.000000 8.438565 -0.680529 
			CHANNELS 3 Xrotation Zrotation Yrotation
			JOINT neck
			{
				OFFSET 0.000000 10.207942 -0.272212 
				CHANNELS 3 Xrotation Zrotation Yrotation
				JOINT head
				{
					OFFSET 0.000000 3.130431 0.000000 
					CHANNELS 3 Xrotation Zrotation Yrotation
					End Site
					{
						OFFSET 0.000000 3.130435 0.000000 
					}
				}
			}
			JOINT lCollar
			{
				OFFSET 3.470700 6.669187 -0.816635 
				CHANNELS 3 Yrotation Zrotation Xrotation
				JOINT lShldr
				{
					OFFSET 3.198488 0.000000 0.000000 
					CHANNELS 3 Zrotation Yrotation Xrotation
					JOINT lForeArm
					{
						OFFSET 10.139888 0.000000 0.000000 
						CHANNELS 3 Yrotation Zrotation Xrotation
						JOINT lHand
						{
							OFFSET 8.370511 0.000000 0.000000 
							CHANNELS 3 Zrotation Yrotation Xrotation
							End Site
							{
								OFFSET 4.083176 0.000000 0.000000 
							}
						}
					}
				}
			}
			JOINT rCollar
			{
				OFFSET -3.470700 6.669187 -0.816635 
				CHANNELS 3 Yrotation Zrotation Xrotation
				JOINT rShldr
				{
					OFFSET -3.198488 0.000000 0.000000 
					CHANNELS 3 Zrotation Yrotation Xrotation
					JOINT rForeArm
					{
						OFFSET -10.139888 0.000000 0.000000 
						CHANNELS 3 Yrotation Zrotation Xrotation
						JOINT rHand
						{
							OFFSET -8.370511 0.000000 0.000000 
							CHANNELS 3 Zrotation Yrotation Xrotation
							End Site
							{
								OFFSET -4.083176 0.000000 0.000000 
							}
						}
					}
				}
			}
		}
	}
	JOINT lThigh
	{
		OFFSET 5.308129 -1.633274 1.361059 
		CHANNELS 3 Xrotation Zrotation Yrotation
		JOINT lShin
		{
			OFFSET -2.041588 -20.007561 0.000000 
			CHANNELS 3 Xrotation Zrotation Yrotation
			JOINT lFoot
			{
				OFFSET 0.000000 -19.190928 -1.224953 
				CHANNELS 3 Xrotation Yrotation Zrotation
				End Site
				{
					OFFSET 0.000000 -2.449906 4.627600 
				}
			}
		}
	}
	JOINT rThigh
	{
		OFFSET -5.308129 -1.633274 1.361059 
		CHANNELS 3 Xrotation Zrotation Yrotation
		JOINT rShin
		{
			OFFSET 2.041588 -20.007561 0.000000 
			CHANNELS 3 Xrotation Zrotation Yrotation
			JOINT rFoot
			{
				OFFSET 0.000000 -19.190928 -1.224953 
				CHANNELS 3 Xrotation Yrotation Zrotation
				End Site
				{
					OFFSET 0.000000 -2.449906 4.627600 
				}
			}
		}
	}
}
MOTION
Frames: 13
Frame Time: 0.011111
26.417311 51.121815 -47.144451 3.386483 -1.168139 40.347980 -1.279573 -7.064569 -1.304358 -2.681090 2.241892 -0.332198 -1.564148 -16.426868 -15.784456 32.371826 35.041538 -23.183889 1.452834 -1.250150 0.768655 14.534022 -31.435612 0.439004 -29.003906 0.000000 0.000000 6.992188 16.005859 -44.997307 -6.408587 0.914528 1.823621 74.077705 23.946419 0.565685 50.083359 -8.044766 7.250812 -7.001954 -15.996095 30.214848 -2.592620 6.408145 -10.799712 16.654642 -5.268805 -1.086718 -18.042248 -3.105653 -1.243630 -8.571314 -8.172203 14.388513 23.083267 5.288400 1.617888 -21.742603 -5.674584 -2.060537 
26.417009 51.121517 -47.126331 3.374555 -1.098751 40.439835 -1.180527 -7.232481 -1.115384 -2.720197 2.172365 -0.276253 -1.396253 -16.266323 -15.914918 32.110779 35.242062 -23.403563 1.452834 -1.250150 0.768655 14.534022 -31.435612 0.439004 -29.003906 0.000000 0.000000 6.992188 16.005859 -44.997307 -6.408587 0.914528 1.823621 74.083466 24.102848 0.739218 50.490417 -8.143343 7.414056 -7.001954 -15.996095 30.839844 -2.460319 6.395578 -10.881167 16.530039 -5.272494 -1.052847 -18.029724 -3.177244 -1.270439 -8.524240 -8.231768 14.184538 23.183489 5.288862 1.621774 -21.782982 -5.501222 -2.006008 
26.421236 51.115780 -47.112751 3.438189 -0.905825 40.512161 -1.042642 -7.494053 -1.131050 -2.690864 2.221328 -0.274322 -1.484459 -16.309923 -15.887061 32.109226 35.449245 -23.338753 1.452834 -1.250150 0.768655 14.534022 -31.435612 0.439004 -29.003906 0.000000 0.000000 6.992188 16.005859 -44.997307 -6.408587 0.914528 1.823621 73.790039 24.568811 1.296667 50.532547 -8.155350 7.422443 -7.001954 -15.996095 31.406252 -2.292467 6.206877 -10.919552 16.485424 -5.283529 -1.043336 -18.128082 -3.245766 -1.277442 -8.451973 -8.453948 13.942416 23.225990 5.277816 1.621895 -21.746832 -5.307185 -1.932954 
26.441467 51.107021 -47.107613 3.578965 -0.694972 40.530590 -0.992856 -7.785731 -1.148581 -2.593125 2.251264 -0.279759 -1.552969 -16.318609 -15.858347 32.131268 35.567844 -23.256033 1.452834 -1.250150 0.768655 14.534022 -31.435612 0.439004 -29.003906 0.000000 0.000000 6.992188 16.005859 -44.997307 -6.408587 0.914528 1.823621 73.475586 25.222780 1.094944 50.238819 -8.076794 7.300483 -7.001954 -15.996095 30.986332 -2.088018 5.895256 -11.013527 16.345106 -5.272682 -1.045551 -18.188555 -3.122759 -1.246717 -8.485780 -8.798508 13.577807 23.316236 5.278312 1.635147 -21.678802 -5.023326 -1.822333 
26.455057 51.100674 -47.096138 3.654167 -0.640241 40.517616 -1.041841 -7.916018 -1.008649 -2.544273 2.211694 -0.239541 -1.493433 -16.235235 -15.918292 32.106892 35.675915 -23.332624 1.452834 -1.250150 0.768655 14.534022 -31.435612 0.439004 -29.003906 0.000000 0.000000 6.992188 16.005859 -44.997307 -6.408587 0.914528 1.823621 73.295555 25.718349 0.792985 50.041275 -8.032394 7.232872 -7.001954 -15.996095 30.751953 -1.988596 5.774960 -11.232731 16.221418 -5.273697 -1.041427 -18.265583 -2.893948 -1.171067 -8.559702 -8.903174 13.483262 23.386343 5.278680 1.637875 -21.717571 -4.931608 -1.798586 
26.452942 51.095245 -47.085873 3.696062 -0.588345 40.434631 -1.032616 -8.015700 -0.891438 -2.514920 2.279390 -0.197998 -1.464529 -16.295776 -15.934575 32.008591 35.771927 -23.368271 1.452834 -1.250150 0.768655 14.534022 -31.435612 0.439004 -29.003906 0.000000 0.000000 6.992188 16.005859 -44.997307 -6.408587 0.914528 1.823621 72.891556 26.183441 1.502413 50.009983 -8.024661 7.213958 -7.001954 -15.996095 31.376953 -1.919925 5.715808 -11.414939 16.163792 -5.261205 -1.047189 -18.288553 -2.679380 -1.089936 -8.602926 -8.944969 13.625507 23.426497 5.278904 1.649181 -21.784351 -4.992517 -1.831147 
26.461399 51.102184 -47.078320 3.670571 -0.548270 40.357708 -0.944377 -7.996330 -0.833878 -2.466044 2.298884 -0.185888 -1.671304 -16.508425 -15.879589 32.286201 35.869965 -23.207699 1.452834 -1.250150 0.768655 14.534022 -31.435612 0.439004 -29.003906 0.000000 0.000000 6.992188 16.005859 -44.997307 -6.408587 0.914528 1.823621 72.469406 26.669474 1.884405 50.072575 -8.040110 7.242030 -7.001954 -15.996095 31.093754 -1.783053 5.695511 -11.331284 16.098446 -5.271871 -1.026231 -18.213427 -2.647137 -1.092755 -8.556906 -8.950185 13.780081 23.475470 5.282909 1.622680 -21.918684 -4.966592 -1.844813 
26.471664 51.105812 -47.068657 3.581357 -0.618582 40.349335 -0.954503 -7.872552 -0.669473 -2.514948 2.209886 -0.140774 -1.739466 -16.528543 -15.908958 32.654232 35.931480 -23.179787 1.452834 -1.250150 0.768655 14.534022 -31.435612 0.439004 -29.003906 0.000000 0.000000 6.992188 16.005859 -44.997307 -6.408587 0.914528 1.823621 72.286194 26.939552 1.585144 50.291714 -8.093617 7.327326 -7.001954 -15.996095 30.332033 -1.831885 5.822362 -11.070959 16.200848 -5.273371 -1.030018 -18.222452 -2.784780 -1.144051 -8.494916 -8.856656 13.514251 23.444448 5.288287 1.642139 -21.794043 -4.848281 -1.782514 
26.468643 51.096756 -47.057487 3.589837 -0.623683 40.329765 -0.994447 -7.934754 -0.516940 -2.583348 2.228337 -0.094225 -1.637523 -16.103674 -16.028521 32.400867 35.381874 -23.605417 1.452834 -1.250150 0.768655 14.534022 -31.435612 0.439004 -29.003906 0.000000 0.000000 6.992188 16.005859 -44.997307 -6.408587 0.914528 1.823621 71.959251 27.182148 1.905295 50.595203 -8.170196 7.450862 -7.001954 -15.996095 30.605471 -2.039135 5.787782 -10.980673 16.570915 -5.273072 -1.054367 -18.400694 -2.917976 -1.177282 -8.427280 -8.876668 13.266756 23.236105 5.277886 1.632031 -21.539988 -4.730194 -1.702519 
26.441164 51.107929 -47.065334 3.314765 -1.213497 40.137505 -1.103175 -7.114884 -0.490965 -2.651773 2.189166 -0.097566 -1.587593 -15.933477 -16.026682 32.035549 34.893353 -23.808144 1.452834 -1.250150 0.768655 14.534022 -31.435612 0.439004 -29.003906 0.000000 0.000000 6.992188 16.005859 -44.997307 -6.408587 0.914528 1.823621 71.371841 27.730257 2.557227 50.667591 -8.183297 7.472335 -7.001954 -15.996095 30.996096 -2.553660 6.486300 -10.897218 16.910904 -5.269513 -1.116179 -18.590197 -2.912392 -1.169120 -8.416594 -8.124236 13.652358 23.055143 5.278858 1.605063 -21.385569 -5.099559 -1.786880 
26.411875 51.120613 -47.079224 2.905534 -1.983404 39.912098 -1.220863 -5.993624 -0.381884 -2.690906 2.042309 -0.081990 -1.579221 -16.066414 -15.986710 31.945921 34.873634 -23.740164 1.452834 -1.250150 0.768655 14.534022 -31.435612 0.439004 -29.003906 0.000000 0.000000 6.992188 16.005859 -44.997307 -6.408587 0.914528 1.823621 70.946030 28.382618 2.488547 50.657871 -8.184968 7.480711 -7.001954 -15.996095 30.654299 -3.052997 7.435787 -10.942156 17.104446 -5.272103 -1.104803 -18.824320 -2.809055 -1.120769 -8.396995 -7.079391 14.212190 22.922714 5.287484 1.592155 -21.397676 -5.572918 -1.960673 
26.413385 51.119701 -47.063824 3.061290 -1.677195 39.949478 -1.142538 -6.493736 -0.272457 -2.671336 2.129549 -0.040731 -1.617273 -15.950262 -15.979328 32.038464 34.819504 -23.727322 1.452834 -1.250150 0.768655 14.534022 -31.435612 0.439004 -29.003906 0.000000 0.000000 6.992188 16.005859 -44.997307 -6.408587 0.914528 1.823621 70.803703 28.756971 2.332641 51.065361 -8.279233 7.636701 -7.001954 -15.996095 30.488285 -3.004302 7.045569 -11.086796 17.343901 -5.293147 -1.137158 -19.025383 -2.860715 -1.122208 -8.286917 -7.468510 14.077832 22.783972 5.279350 1.585245 -21.281216 -5.601458 -1.949095 
26.424557 51.120613 -47.038757 3.290562 -1.191347 40.020702 -1.035100 -7.267607 -0.147254 -2.641982 2.236289 0.001310 -1.413175 -16.060608 -16.070713 32.263710 35.348427 -23.652420 1.452834 -1.250150 0.768655 14.534022 -31.435612 0.439004 -29.003906 0.000000 0.000000 6.992188 16.005859 -44.997307 -6.408587 0.914528 1.823621 70.633247 29.055105 2.498549 51.558697 -8.398872 7.839233 -7.001954 -15.996095 30.839844 -2.752612 6.462906 -11.208287 17.439089 -5.282704 -1.148512 -19.086088 -2.848100 -1.128085 -8.170166 -8.093493 13.596714 22.703831 5.278999 1.591000 -21.010147 -5.399635 -1.823519 
